<mxfile host="app.diagrams.net" agent="Mozilla/5.0 (Windows NT 10.0; Win64; x64) AppleWebKit/537.36 (KHTML, like Gecko) Chrome/132.0.0.0 Safari/537.36 OPR/117.0.0.0" version="26.1.0">
  <diagram name="Página-1" id="MvrbzyDox4Wt_1tos2_W">
    <mxGraphModel dx="838" dy="449" grid="1" gridSize="10" guides="1" tooltips="1" connect="1" arrows="1" fold="1" page="1" pageScale="1" pageWidth="827" pageHeight="1169" math="0" shadow="0">
      <root>
        <mxCell id="0" />
        <mxCell id="1" parent="0" />
        <mxCell id="kXjoKvxsPi3jEmVqvRIR-34" style="edgeStyle=orthogonalEdgeStyle;rounded=0;orthogonalLoop=1;jettySize=auto;html=1;exitX=0.5;exitY=1;exitDx=0;exitDy=0;" edge="1" parent="1" source="kXjoKvxsPi3jEmVqvRIR-17" target="kXjoKvxsPi3jEmVqvRIR-27">
          <mxGeometry relative="1" as="geometry" />
        </mxCell>
        <mxCell id="kXjoKvxsPi3jEmVqvRIR-17" value="Pagamentos" style="rounded=1;whiteSpace=wrap;html=1;" vertex="1" parent="1">
          <mxGeometry x="680" y="80" width="120" height="60" as="geometry" />
        </mxCell>
        <mxCell id="kXjoKvxsPi3jEmVqvRIR-25" style="edgeStyle=orthogonalEdgeStyle;rounded=0;orthogonalLoop=1;jettySize=auto;html=1;exitX=1;exitY=0.5;exitDx=0;exitDy=0;entryX=0;entryY=0.5;entryDx=0;entryDy=0;" edge="1" parent="1" source="kXjoKvxsPi3jEmVqvRIR-18" target="kXjoKvxsPi3jEmVqvRIR-19">
          <mxGeometry relative="1" as="geometry" />
        </mxCell>
        <mxCell id="kXjoKvxsPi3jEmVqvRIR-32" style="edgeStyle=orthogonalEdgeStyle;rounded=0;orthogonalLoop=1;jettySize=auto;html=1;exitX=0.5;exitY=1;exitDx=0;exitDy=0;" edge="1" parent="1" source="kXjoKvxsPi3jEmVqvRIR-18">
          <mxGeometry relative="1" as="geometry">
            <mxPoint x="370" y="240" as="targetPoint" />
          </mxGeometry>
        </mxCell>
        <mxCell id="kXjoKvxsPi3jEmVqvRIR-18" value="Pedidos" style="rounded=1;whiteSpace=wrap;html=1;" vertex="1" parent="1">
          <mxGeometry x="310" y="80" width="120" height="60" as="geometry" />
        </mxCell>
        <mxCell id="kXjoKvxsPi3jEmVqvRIR-26" style="edgeStyle=orthogonalEdgeStyle;rounded=0;orthogonalLoop=1;jettySize=auto;html=1;exitX=1;exitY=0.5;exitDx=0;exitDy=0;entryX=0;entryY=0.5;entryDx=0;entryDy=0;" edge="1" parent="1" source="kXjoKvxsPi3jEmVqvRIR-19" target="kXjoKvxsPi3jEmVqvRIR-17">
          <mxGeometry relative="1" as="geometry" />
        </mxCell>
        <mxCell id="kXjoKvxsPi3jEmVqvRIR-19" value="Produtos" style="rounded=1;whiteSpace=wrap;html=1;" vertex="1" parent="1">
          <mxGeometry x="490" y="80" width="120" height="60" as="geometry" />
        </mxCell>
        <mxCell id="kXjoKvxsPi3jEmVqvRIR-24" style="edgeStyle=orthogonalEdgeStyle;rounded=0;orthogonalLoop=1;jettySize=auto;html=1;exitX=1;exitY=0.5;exitDx=0;exitDy=0;" edge="1" parent="1" source="kXjoKvxsPi3jEmVqvRIR-20" target="kXjoKvxsPi3jEmVqvRIR-18">
          <mxGeometry relative="1" as="geometry" />
        </mxCell>
        <mxCell id="kXjoKvxsPi3jEmVqvRIR-31" style="edgeStyle=orthogonalEdgeStyle;rounded=0;orthogonalLoop=1;jettySize=auto;html=1;exitX=0.5;exitY=1;exitDx=0;exitDy=0;entryX=0.5;entryY=0;entryDx=0;entryDy=0;" edge="1" parent="1" source="kXjoKvxsPi3jEmVqvRIR-20" target="kXjoKvxsPi3jEmVqvRIR-30">
          <mxGeometry relative="1" as="geometry" />
        </mxCell>
        <mxCell id="kXjoKvxsPi3jEmVqvRIR-20" value="Clientes" style="rounded=1;whiteSpace=wrap;html=1;" vertex="1" parent="1">
          <mxGeometry x="120" y="80" width="120" height="60" as="geometry" />
        </mxCell>
        <mxCell id="kXjoKvxsPi3jEmVqvRIR-27" value="Crédito&lt;div&gt;Débito&lt;/div&gt;&lt;div&gt;Pix&lt;/div&gt;&lt;div&gt;PK-Id do pagamento&lt;/div&gt;" style="rounded=0;whiteSpace=wrap;html=1;" vertex="1" parent="1">
          <mxGeometry x="670" y="240" width="130" height="70" as="geometry" />
        </mxCell>
        <mxCell id="kXjoKvxsPi3jEmVqvRIR-28" value="Nome do produto&lt;div&gt;Quantidade de produtos&lt;/div&gt;&lt;div&gt;PK-Código do produto&lt;/div&gt;" style="rounded=0;whiteSpace=wrap;html=1;" vertex="1" parent="1">
          <mxGeometry x="490" y="240" width="120" height="70" as="geometry" />
        </mxCell>
        <mxCell id="kXjoKvxsPi3jEmVqvRIR-29" value="PK-N° do pedido&lt;div&gt;Hora do pedido&lt;/div&gt;&lt;div&gt;Data do pedido&lt;/div&gt;" style="rounded=0;whiteSpace=wrap;html=1;" vertex="1" parent="1">
          <mxGeometry x="310" y="240" width="140" height="70" as="geometry" />
        </mxCell>
        <mxCell id="kXjoKvxsPi3jEmVqvRIR-30" value="&lt;div&gt;PK-Código do cliente&lt;/div&gt;Nome&lt;div&gt;Cpf&lt;/div&gt;&lt;div&gt;Idade&lt;/div&gt;&lt;div&gt;Endereço&lt;/div&gt;" style="rounded=0;whiteSpace=wrap;html=1;" vertex="1" parent="1">
          <mxGeometry x="110" y="240" width="120" height="70" as="geometry" />
        </mxCell>
        <mxCell id="kXjoKvxsPi3jEmVqvRIR-33" style="edgeStyle=orthogonalEdgeStyle;rounded=0;orthogonalLoop=1;jettySize=auto;html=1;exitX=0.5;exitY=1;exitDx=0;exitDy=0;entryX=0.558;entryY=0;entryDx=0;entryDy=0;entryPerimeter=0;" edge="1" parent="1" source="kXjoKvxsPi3jEmVqvRIR-19" target="kXjoKvxsPi3jEmVqvRIR-28">
          <mxGeometry relative="1" as="geometry" />
        </mxCell>
      </root>
    </mxGraphModel>
  </diagram>
</mxfile>
